<?xml version="1.0" encoding="iso-8859-1"?>
<!-- Generator: Adobe Illustrator 18.0.0, SVG Export Plug-In . SVG Version: 6.00 Build 0)  -->
<!DOCTYPE svg PUBLIC "-//W3C//DTD SVG 1.1//EN" "http://www.w3.org/Graphics/SVG/1.1/DTD/svg11.dtd">
<svg version="1.1" id="Capa_1" xmlns="http://www.w3.org/2000/svg" xmlns:xlink="http://www.w3.org/1999/xlink" x="0px" y="0px"
	 viewBox="0 0 322.806 322.806" style="enable-background:new 0 0 322.806 322.806;" xml:space="preserve">
<g>
	<path style="fill:#FDD44B;" d="M160.717,122.923c-0.145,0.059-0.297,0.102-0.446,0.152
		C160.423,123.03,160.57,122.977,160.717,122.923z"/>
	<path style="fill:#FDD44B;" d="M162.569,167.874c-4.154,0-7.52-3.554-7.52-7.707c0-0.88,0.158-2.694,0.436-2.694h-2.943
		c-4.154,0-7.521-3.637-7.521-7.791s3.662-6.638,7.816-6.638l61.222,0.302c5.246,0,9.584-5.432,9.584-10.707
		c0-8.732-4.868-13.509-11.03-19.856c-9.313-9.59-20.903-21.411-12.872-47.224c3.791-12.187,3.212-21.87-1.671-29.713
		c-3.056-2.028-6.37-3.663-9.707-5.012c2.433,4.968,3.665,10.381,3.502,15.933c-0.454,15.48-11.535,28.573-30.399,35.91
		c-27.394,10.652-27.867,22.576-27.83,23.993c0.101,0.404,0.1,2.805,0.095,2.805h24.393c4.154,0,7.521,1.522,7.521,5.676
		c0,3.056-2.482,5.43-1.795,2.797l4.302,0.144c4.154,0,7.521,3.537,7.521,7.692c0,4.154-3.367,7.692-7.521,7.692h-49.254
		c-5.252,0-9.414,4.17-9.576,9.383c-0.113-0.005,6.89,3.013,6.89,7.167c0,4.154-33.079,7.451-27.839,7.451h20.498
		c3.428,0,6.314-2.103,7.22-5.238c0.89,0.269,1.831,0.513,2.807,0.513c4.154,0,7.521,3.709,7.521,7.862
		c0,4.154-3.367,7.863-7.521,7.863H98.4c-10.626,1-9.633,11.71-9.268,9.339l145.301,1.007c5.043,0,9.151-6.038,9.617-10.902
		L162.569,167.874z"/>
	<g>
		<path style="fill:#84BD93;" d="M257.185,194.682c-0.134-0.145-0.273-0.28-0.418-0.414
			C256.911,194.4,257.051,194.538,257.185,194.682z"/>
		<path style="fill:#84BD93;" d="M258.868,197.731c0.045,0.166,0.108,0.326,0.142,0.497
			C258.977,198.056,258.914,197.897,258.868,197.731z"/>
		<path style="fill:#84BD93;" d="M257.655,195.252c0.119,0.158,0.24,0.316,0.347,0.483
			C257.895,195.567,257.775,195.411,257.655,195.252z"/>
		<path style="fill:#84BD93;" d="M258.362,196.397c0.087,0.176,0.183,0.346,0.256,0.529
			C258.544,196.743,258.449,196.573,258.362,196.397z"/>
		<path style="fill:#84BD93;" d="M255.718,193.46c0.161,0.102,0.314,0.214,0.466,0.327
			C256.031,193.673,255.88,193.562,255.718,193.46z"/>
		<path style="fill:#84BD93;" d="M259.013,196.473H98.265H80.866c-4.036,0-7.321,4.932-7.321,8.968c0,0.473,0.049,3.032,0.135,3.032
			h178.152c4.037,0,7.321-4.931,7.321-8.967C259.153,199.032,259.1,199.473,259.013,196.473z"/>
		<path style="fill:#84BD93;" d="M254.53,192.849c0.167,0.067,0.324,0.151,0.485,0.229
			C254.853,192.999,254.698,192.916,254.53,192.849z"/>
		<path style="fill:#84BD93;" d="M253.226,192.46c0.151,0.029,0.292,0.082,0.44,0.12
			C253.518,192.542,253.378,192.489,253.226,192.46z"/>
	</g>
	<polygon style="fill:#EF8829;" points="92.609,220.473 103.199,307.473 229.634,307.473 240.223,220.473 	"/>
	<path style="fill:#3F2D20;" d="M256.928,177.871c1.444-3.14,2.255-6.628,2.255-10.304c0-12.898-9.916-23.523-22.525-24.651
		c1.303-3.008,2.026-6.325,2.026-9.807c0-14.833-8.473-23.559-15.281-30.57c-8.521-8.775-14.677-15.116-9.301-32.395
		c5.379-17.289,3.895-32.105-4.412-44.037c-16.535-23.753-54.174-26.01-55.768-26.095c-3.597-0.202-6.837,2.207-7.701,5.713
		c-0.863,3.506,0.888,7.13,4.171,8.634c10.38,4.757,16.669,13.168,16.411,21.951c-0.269,9.147-7.857,17.285-20.817,22.325
		c-37.229,14.479-37.744,35.529-37.324,40.403c0.051,3.302,0.753,6.45,1.981,9.32h-1.772c-13.647,0-24.75,11.103-24.75,24.75
		c0,3.482,0.723,6.799,2.026,9.807c-12.609,1.129-22.524,11.753-22.524,24.651c0,3.676,0.812,7.164,2.255,10.304
		c-9.883,2.313-17.266,11.191-17.266,21.769c0,11.111,8.146,20.349,18.779,22.07l11.668,94.497c0.465,3.769,3.667,6.599,7.464,6.599
		h149.761c3.798,0,6.999-2.83,7.464-6.599l11.668-94.497c10.633-1.72,18.78-10.959,18.78-22.07
		C274.194,189.062,266.811,180.184,256.928,177.871z M251.832,206.959H70.974c-4.036,0-7.321-3.283-7.321-7.319
		c0-4.037,3.284-7.321,7.321-7.321h17.399h163.46c4.037,0,7.321,3.284,7.321,7.321C259.153,203.675,255.869,206.959,251.832,206.959
		z M93.172,307.764L82.582,222h157.641l-10.589,85.764H93.172z M88.372,157.859h20.498c4.154,0,7.521-3.367,7.521-7.521
		c0-4.154-3.367-7.521-7.521-7.521c-5.354,0-9.708-4.355-9.708-9.708c0-5.354,4.355-9.708,9.708-9.708h49.254
		c4.154,0,7.521-3.367,7.521-7.521c0-4.154-3.367-7.521-7.521-7.521h-24.715c-5.354,0-9.708-4.356-9.708-9.71
		c0-0.607,0.036-0.734-0.092-1.245c-0.037-1.417,0.436-14.097,27.83-24.749c18.864-7.337,29.945-20.423,30.399-35.903
		c0.164-5.551-1.068-10.95-3.502-15.918c7.282,2.942,14.483,7.342,19.034,13.9c5.574,8.033,6.35,18.153,2.372,30.942
		c-8.031,25.813,3.559,37.751,12.871,47.342c6.163,6.347,11.031,11.359,11.031,20.092c0,5.275-4.231,9.571-9.476,9.697h-61.625
		c-4.154,0-7.521,3.367-7.521,7.521s3.367,7.521,7.521,7.521l81.892,0.012c5.354,0,9.708,4.355,9.708,9.708
		c0,5.354-4.355,9.71-9.708,9.71H88.372c-5.354,0-9.708-4.356-9.708-9.71C78.664,162.213,83.018,157.859,88.372,157.859z"/>
</g>
<g>
</g>
<g>
</g>
<g>
</g>
<g>
</g>
<g>
</g>
<g>
</g>
<g>
</g>
<g>
</g>
<g>
</g>
<g>
</g>
<g>
</g>
<g>
</g>
<g>
</g>
<g>
</g>
<g>
</g>
</svg>
